 <svg  version="1.0" xmlns="http://www.w3.org/2000/svg"  width="156.000000pt" height="145.000000pt" viewBox="0 0 156.000000 145.000000"  preserveAspectRatio="xMidYMid meet">  <g transform="translate(0.000000,145.000000) scale(0.100000,-0.100000)" fill="#32399a" stroke="none"> <path d="M736 1265 c-18 -17 -26 -34 -26 -58 0 -37 32 -87 56 -87 11 0 14 -15 14 -60 0 -54 -2 -60 -20 -60 -12 0 -39 -9 -62 -21 l-40 -21 -38 37 c-34 33 -37 40 -28 65 11 33 -10 83 -41 100 -94 50 -182 -76 -100 -144 33 -28 45 -31 82 -17 21 8 30 4 61 -28 l37 -38 -20 -39 c-12 -21 -21 -49 -21 -61 0 -21 -4 -23 -60 -23 -35 0 -60 4 -60 10 0 6 -11 22 -25 35 -54 55 -145 15 -145 -63 0 -83 95 -117 151 -54 26 29 34 32 84 32 50 0 55 -2 55 -22 0 -13 9 -38 21 -57 l20 -34 -36 -37 c-33 -34 -40 -37 -80 -32 -37 4 -47 1 -69 -21 -54 -55 -18 -151 57 -151 62 0 112 67 86 116 -10 18 -6 25 29 58 l40 38 48 -24 c26 -13 53 -24 61 -24 9 0 13 -16 13 -55 0 -30 -4 -55 -9 -55 -4 0 -20 -11 -35 -25 -33 -30 -35 -81 -5 -119 28 -36 95 -37 128 -2 39 42 23 125 -29 141 -17 5 -20 15 -20 61 0 38 4 54 13 54 8 0 36 11 63 25 l49 25 36 -36 c33 -32 36 -39 32 -78 -7 -58 27 -100 81 -100 81 0 120 100 59 153 -22 19 -35 22 -69 18 -39 -4 -46 -1 -79 33 l-36 37 20 34 c12 19 21 44 21 57 0 20 5 22 57 22 51 0 59 -3 83 -32 59 -71 158 -23 151 73 -2 31 -48 69 -84 69 -33 0 -87 -38 -87 -61 0 -5 -27 -9 -60 -9 -59 0 -60 1 -60 28 0 15 -9 42 -21 61 l-20 34 33 30 c26 25 42 31 80 32 79 2 125 63 93 125 -29 56 -98 68 -141 25 -21 -21 -25 -34 -23 -71 3 -40 -1 -49 -32 -80 l-36 -36 -39 21 c-21 12 -49 21 -61 21 -21 0 -23 4 -23 60 0 43 4 60 13 60 19 0 55 41 57 65 4 40 -1 56 -25 80 -32 33 -83 33 -119 0z m98 -31 c21 -20 20 -37 -3 -65 -16 -20 -23 -22 -46 -14 -36 13 -48 46 -29 74 18 25 56 27 78 5z m-280 -137 c7 -27 -19 -67 -42 -67 -24 0 -49 20 -56 46 -10 32 36 67 69 52 13 -6 26 -20 29 -31z m580 0 c7 -27 -19 -67 -42 -67 -49 0 -71 52 -37 86 21 21 28 22 49 13 13 -6 27 -21 30 -32z m-253 -152 c67 -35 105 -133 79 -209 l-12 -37 -23 25 c-56 60 -193 60 -256 0 l-28 -26 -12 40 c-45 152 111 280 252 207z m-451 -151 c0 -23 -6 -37 -20 -44 -42 -23 -92 19 -70 60 28 52 90 41 90 -16z m824 13 c7 -28 -19 -67 -44 -67 -23 0 -60 33 -60 54 0 8 12 24 26 35 21 16 30 18 49 9 13 -6 26 -20 29 -31z m-365 -103 c17 -14 31 -29 31 -33 0 -17 -80 -51 -119 -51 -46 0 -99 19 -119 42 -11 14 -8 20 20 42 27 21 44 26 95 26 52 0 66 -4 92 -26z m-335 -186 c13 -21 -17 -68 -44 -68 -21 0 -60 33 -60 50 0 6 11 22 25 36 24 23 28 25 47 12 12 -8 26 -22 32 -30z m579 0 c7 -26 -1 -46 -25 -59 -27 -14 -57 -2 -69 29 -9 23 -7 30 16 49 21 19 29 21 49 11 14 -6 27 -19 29 -30z m-299 -104 c20 -19 20 -34 0 -62 -26 -37 -70 -27 -87 19 -15 44 53 77 87 43z"/> <path d="M740 915 c-14 -15 -23 -37 -23 -55 0 -37 37 -80 69 -80 62 0 104 53 83 107 -21 57 -88 72 -129 28z m94 -37 c15 -25 -3 -52 -37 -56 -34 -4 -58 38 -37 63 17 20 59 16 74 -7z"/> </g> </svg> 